<svg xmlns="http://www.w3.org/2000/svg" viewBox="0 0 260 280" role="img" aria-label="Dipshits chip mascot">
  
  <g transform="translate(130 150)">
    
    <path d="M -100,80 Q -110,80 -104,68 L -6,-110 Q 0,-122 6,-110 L 104,68 Q 110,80 100,80 Z" fill="#1A1313" transform="translate(6 6)"></path>
    
    <path d="M -100,80 Q -110,80 -104,68 L -6,-110 Q 0,-122 6,-110 L 104,68 Q 110,80 100,80 Z" fill="#FFD60A" stroke="#1A1313" stroke-width="6" stroke-linejoin="round"></path>
    
    <path d="M -80,60 Q -50,40 -10,30 Q 30,28 70,50" stroke="#E8A41A" stroke-width="4" fill="none" stroke-linecap="round" opacity="0.6"></path>

    
    <circle cx="-40" cy="40" r="3" fill="#1A1313"></circle>
    <circle cx="50" cy="20" r="2.5" fill="#1A1313"></circle>
    <circle cx="-10" cy="-20" r="3" fill="#1A1313"></circle>
    <circle cx="70" cy="55" r="2" fill="#1A1313"></circle>
    <circle cx="-70" cy="55" r="2.5" fill="#1A1313"></circle>

    
    
  </g>
</svg>